<svg xmlns="http://www.w3.org/2000/svg" viewBox="0 0 520 128" role="img" aria-labelledby="title desc">
  <title id="title">アキナエルAI</title>
  <desc id="desc">商いの願いを叶える、アキナエルAI。</desc>
  <g transform="translate(0)">
    <path fill="#F7F3EA" stroke="#164E4A" stroke-width="8" stroke-linejoin="round" d="M24 49h80v42a12 12 0 0 1-12 12H58l-18 15v-15h-4a12 12 0 0 1-12-12z"/>
    <path fill="#164E4A" d="M18 45 31 17h66l13 28a13 13 0 0 1-23 8 13 13 0 0 1-23 0 13 13 0 0 1-23 0 13 13 0 0 1-23-8Z"/>
    <path fill="#F7F3EA" d="m42 17-5 28a7 7 0 0 0 14 0l2-28zm33 0 2 28a7 7 0 0 0 14 0l-5-28z"/>
    <circle cx="41" cy="76" r="5" fill="#E87861"/><circle cx="58" cy="76" r="5" fill="#E87861"/><circle cx="75" cy="76" r="5" fill="#E87861"/>
    <circle cx="96" cy="91" r="25" fill="#E87861" stroke="#F7F3EA" stroke-width="5"/>
    <path d="m84 91 8 8 16-18" fill="none" stroke="#fff" stroke-width="7" stroke-linecap="round" stroke-linejoin="round"/>
  </g>
  <text x="138" y="69" fill="#17302E" font-family="'Noto Sans JP','Hiragino Sans','Yu Gothic',sans-serif" font-size="42" font-weight="800" letter-spacing="0">アキナエル<tspan fill="#E87861">AI</tspan></text>
  <text x="141" y="101" fill="#164E4A" font-family="'Noto Sans JP','Hiragino Sans','Yu Gothic',sans-serif" font-size="17" font-weight="600">小さな商いに、大きな可能性を。</text>
</svg>
